<?xml version="1.0" encoding="UTF-8"?>
<!DOCTYPE svg PUBLIC "-//W3C//DTD SVG 1.1//EN" "http://www.w3.org/Graphics/SVG/1.1/DTD/svg11.dtd">
<svg xmlns="http://www.w3.org/2000/svg" version="1.1" width="572px" height="437px" style="shape-rendering:geometricPrecision; text-rendering:geometricPrecision; image-rendering:optimizeQuality; fill-rule:evenodd; clip-rule:evenodd" xmlns:xlink="http://www.w3.org/1999/xlink">
<g><path style="opacity:0.968" fill="#020101" d="M 230.5,58.5 C 246.024,57.6761 257.524,64.0094 265,77.5C 266.867,81.631 267.7,85.9643 267.5,90.5C 267.025,97.1686 266.525,103.835 266,110.5C 265.835,114.661 264.668,118.494 262.5,122C 263.357,122.689 264.023,123.522 264.5,124.5C 263.001,129.488 261.501,134.488 260,139.5C 258,140.833 256,140.833 254,139.5C 251.572,134.168 250.739,128.668 251.5,123C 251.22,121.605 250.553,120.438 249.5,119.5C 245.459,121.721 241.126,122.888 236.5,123C 235.167,125.333 233.833,127.667 232.5,130C 246.681,144.347 261.014,158.514 275.5,172.5C 303.081,150.256 329.747,126.922 355.5,102.5C 354.691,100.929 354.357,99.2624 354.5,97.5C 348.788,97.7557 343.121,98.4224 337.5,99.5C 336.833,99.1667 336.167,98.8333 335.5,98.5C 337.717,95.2271 340.05,92.0604 342.5,89C 339.776,86.4525 336.776,84.1192 333.5,82C 338.282,80.773 342.615,78.773 346.5,76C 345.883,70.9535 345.217,65.9535 344.5,61C 344.833,60.8333 345.167,60.6667 345.5,60.5C 349.791,65.2919 354.291,69.9586 359,74.5C 369.941,60.7477 383.774,56.9143 400.5,63C 418.937,73.7315 423.771,88.8982 415,108.5C 407.185,119.73 396.352,125.397 382.5,125.5C 381.071,127.331 380.571,129.331 381,131.5C 394.167,144.667 407.333,157.833 420.5,171C 429.021,171.28 435.854,174.78 441,181.5C 451.357,204.901 461.524,228.401 471.5,252C 506.206,246.603 531.706,259.436 548,290.5C 558.987,321.052 552.487,347.219 528.5,369C 508.383,383.444 486.716,386.777 463.5,379C 436.572,367.165 422.238,346.498 420.5,317C 421.219,292.887 431.552,274.22 451.5,261C 449.069,254.639 446.236,248.472 443,242.5C 408.805,276.361 374.972,310.528 341.5,345C 329.838,345.5 318.171,345.667 306.5,345.5C 304.794,359.281 296.96,366.281 283,366.5C 269.175,365.172 262.008,357.505 261.5,343.5C 231.831,343.667 202.165,343.5 172.5,343C 168.238,342.06 164.072,340.894 160,339.5C 160.403,353.561 153.903,362.395 140.5,366C 119.95,385.262 96.2836,390.262 69.5,381C 39.6278,367.107 25.7945,343.607 28,310.5C 35.5428,275.288 57.2095,255.955 93,252.5C 99.071,253.092 105.404,254.092 112,255.5C 112.5,255.167 113,254.833 113.5,254.5C 114.47,246.222 114.803,237.889 114.5,229.5C 110.167,229.5 105.833,229.5 101.5,229.5C 101.5,220.833 101.5,212.167 101.5,203.5C 105.514,203.666 109.514,203.499 113.5,203C 114.679,194.456 117.179,186.289 121,178.5C 148.128,155.707 174.962,132.54 201.5,109C 198.256,108.477 195.59,109.477 193.5,112C 188.809,113.104 184.309,114.604 180,116.5C 178.564,116.441 177.231,116.108 176,115.5C 175.294,113.029 175.627,110.695 177,108.5C 185.372,101.454 193.539,94.1207 201.5,86.5C 205.366,70.9645 215.033,61.6312 230.5,58.5 Z M 199.5,165.5 C 200.552,165.351 201.552,165.517 202.5,166C 215.894,180.063 229.894,193.397 244.5,206C 248.07,207.31 251.737,208.143 255.5,208.5C 255.5,215.5 255.5,222.5 255.5,229.5C 257.5,229.5 259.5,229.5 261.5,229.5C 261.5,234.5 261.5,239.5 261.5,244.5C 247.463,245.635 233.463,246.801 219.5,248C 222.72,241.009 225.554,233.842 228,226.5C 228.893,223.084 228.393,219.917 226.5,217C 227.28,215.927 227.113,214.76 226,213.5C 223.537,210.035 220.704,206.869 217.5,204C 204.34,198.45 191.34,192.617 178.5,186.5C 185.827,179.839 192.827,172.839 199.5,165.5 Z M 346.5,165.5 C 348.932,166.75 351.266,168.25 353.5,170C 364.5,181 375.5,192 386.5,203C 401.46,212.224 413.96,209.724 424,195.5C 427.357,202.566 430.524,209.733 433.5,217C 413.883,222.654 394.217,228.154 374.5,233.5C 377.876,222.123 374.876,212.623 365.5,205C 352.167,199 338.833,193 325.5,187C 332.703,179.965 339.703,172.798 346.5,165.5 Z M 160.5,230.5 C 166.162,232.055 171.496,234.388 176.5,237.5C 174.333,243.167 172.167,248.833 170,254.5C 166.943,255.451 163.777,255.784 160.5,255.5C 160.5,247.167 160.5,238.833 160.5,230.5 Z M 307.5,230.5 C 313.262,232.216 318.596,234.716 323.5,238C 318.726,251.656 313.559,265.156 308,278.5C 307.5,262.503 307.333,246.503 307.5,230.5 Z M 415.5,242.5 C 417.028,242.517 417.528,243.184 417,244.5C 391.333,270.167 365.667,295.833 340,321.5C 338.247,318.995 336.747,316.329 335.5,313.5C 338.124,311.378 340.624,309.045 343,306.5C 349.838,290.158 356.672,273.825 363.5,257.5C 381.035,252.787 398.369,247.787 415.5,242.5 Z M 255.5,263.5 C 257.5,263.5 259.5,263.5 261.5,263.5C 261.826,267.884 261.492,272.217 260.5,276.5C 235.167,291.833 209.833,307.167 184.5,322.5C 182.898,320.573 181.565,318.406 180.5,316C 187.378,314.118 192.878,310.285 197,304.5C 201.557,292.387 206.39,280.387 211.5,268.5C 226.297,266.716 240.964,265.049 255.5,263.5 Z M 480.5,267.5 C 507.796,266.554 525.962,278.887 535,304.5C 539.653,330.359 530.486,349.526 507.5,362C 480.001,371.391 458.501,363.891 443,339.5C 432.772,315.224 437.605,294.558 457.5,277.5C 464.316,293.136 471.149,308.803 478,324.5C 488.591,330.929 494.257,327.929 495,315.5C 489.162,299.983 483.328,284.483 477.5,269C 478.737,268.768 479.737,268.268 480.5,267.5 Z M 160.5,268.5 C 161.873,268.343 163.207,268.51 164.5,269C 163.338,271.816 162.171,274.65 161,277.5C 160.502,274.518 160.335,271.518 160.5,268.5 Z M 89.5,269.5 C 98.0769,269.366 106.244,271.032 114,274.5C 114.867,278.956 114.534,283.289 113,287.5C 103.303,296.863 93.9696,306.53 85,316.5C 83.9963,319.993 84.4963,323.159 86.5,326C 95.7668,328.488 105.1,330.655 114.5,332.5C 112.919,342.582 114.919,351.916 120.5,360.5C 97.4197,373.238 76.2531,370.571 57,352.5C 41.5576,332.196 40.5576,311.196 54,289.5C 63.2122,277.982 75.0455,271.315 89.5,269.5 Z M 260.5,299.5 C 261.493,308.318 261.827,317.318 261.5,326.5C 244.497,326.667 227.497,326.5 210.5,326C 227.387,317.392 244.053,308.559 260.5,299.5 Z M 159.5,308.5 C 160.683,309.504 162.016,310.338 163.5,311C 162.692,311.308 162.025,311.808 161.5,312.5C 163.038,316.407 164.704,320.24 166.5,324C 163.955,324.615 161.622,324.115 159.5,322.5C 160.185,317.888 160.185,313.221 159.5,308.5 Z M 112.5,309.5 C 113.629,311.628 113.796,313.961 113,316.5C 110.931,315.736 108.764,315.236 106.5,315C 108.396,312.932 110.396,311.099 112.5,309.5 Z M 307.5,309.5 C 311.679,312.09 316.012,314.423 320.5,316.5C 322.414,320.323 323.747,324.323 324.5,328.5C 318.5,328.5 312.5,328.5 306.5,328.5C 306.9,322.171 307.233,315.838 307.5,309.5 Z"/></g>
<g><path style="opacity:1" fill="#5a4538" d="M 391.5,85.5 C 392.708,86.2341 394.041,86.5674 395.5,86.5C 395.201,84.396 395.534,82.396 396.5,80.5C 400.094,81.4259 403.76,81.7592 407.5,81.5C 407.753,79.1727 407.086,77.1727 405.5,75.5C 401.246,73.244 396.912,71.0773 392.5,69C 386.521,69.0746 380.521,69.4079 374.5,70C 372.473,71.8793 370.14,73.046 367.5,73.5C 379.314,63.4176 391.648,62.9176 404.5,72C 407.444,74.722 409.777,77.8887 411.5,81.5C 406.544,82.4941 401.544,82.8275 396.5,82.5C 396.5,84.5 396.5,86.5 396.5,88.5C 394.833,88.5 393.167,88.5 391.5,88.5C 391.5,87.5 391.5,86.5 391.5,85.5 Z"/></g>
<g><path style="opacity:1" fill="#5e4533" d="M 242.5,67.5 C 236.755,67.2111 231.088,67.7111 225.5,69C 227.402,69.1992 228.902,70.0325 230,71.5C 232.239,70.1308 234.073,70.6308 235.5,73C 234.359,73.7412 234.359,74.5745 235.5,75.5C 239.035,77.0323 241.035,79.6989 241.5,83.5C 234.549,74.1775 227.549,74.1775 220.5,83.5C 219.523,78.3684 221.523,75.2018 226.5,74C 224.699,73.6827 224.366,73.016 225.5,72C 224.255,71.2086 222.922,70.7086 221.5,70.5C 222.975,68.5905 224.975,67.4238 227.5,67C 232.684,66.1837 237.684,66.3503 242.5,67.5 Z"/></g>
<g><path style="opacity:1" fill="#64452f" d="M 242.5,67.5 C 246.026,68.36 248.693,70.36 250.5,73.5C 246.5,75.1498 244.167,78.1498 243.5,82.5C 243.043,83.2975 242.376,83.6309 241.5,83.5C 241.035,79.6989 239.035,77.0323 235.5,75.5C 234.359,74.5745 234.359,73.7412 235.5,73C 234.073,70.6308 232.239,70.1308 230,71.5C 228.902,70.0325 227.402,69.1992 225.5,69C 231.088,67.7111 236.755,67.2111 242.5,67.5 Z"/></g>
<g><path style="opacity:1" fill="#65442d" d="M 220.5,70.5 C 220.833,70.5 221.167,70.5 221.5,70.5C 222.922,70.7086 224.255,71.2086 225.5,72C 224.366,73.016 224.699,73.6827 226.5,74C 221.523,75.2018 219.523,78.3684 220.5,83.5C 218.806,84.686 217.139,84.5193 215.5,83C 215.957,82.586 216.291,82.086 216.5,81.5C 215.617,80.452 214.95,79.2853 214.5,78C 217.042,75.9551 219.042,73.4551 220.5,70.5 Z"/></g>
<g><path style="opacity:1" fill="#5a4537" d="M 241.5,83.5 C 242.376,83.6309 243.043,83.2975 243.5,82.5C 244.167,78.1498 246.5,75.1498 250.5,73.5C 248.693,70.36 246.026,68.36 242.5,67.5C 237.684,66.3503 232.684,66.1837 227.5,67C 224.975,67.4238 222.975,68.5905 221.5,70.5C 221.167,70.5 220.833,70.5 220.5,70.5C 218.628,72.6037 216.295,73.937 213.5,74.5C 224.352,63.493 236.685,61.6597 250.5,69C 252.833,71.3333 255.167,73.6667 257.5,76C 250.276,76.068 245.942,79.568 244.5,86.5C 243.5,86.5 242.5,86.5 241.5,86.5C 241.5,85.5 241.5,84.5 241.5,83.5 Z"/></g>
<g><path style="opacity:1" fill="#63452f" d="M 391.5,85.5 C 391.5,84.5 391.5,83.5 391.5,82.5C 390.801,79.0553 389.134,78.722 386.5,81.5C 383.816,78.9608 381.149,78.9608 378.5,81.5C 377.554,79.0577 376.054,77.0577 374,75.5C 371.823,77.9646 369.323,78.9646 366.5,78.5C 367.127,77.5832 367.461,76.5832 367.5,75.5C 367.5,74.8333 367.5,74.1667 367.5,73.5C 370.14,73.046 372.473,71.8793 374.5,70C 380.521,69.4079 386.521,69.0746 392.5,69C 396.912,71.0773 401.246,73.244 405.5,75.5C 407.086,77.1727 407.753,79.1727 407.5,81.5C 403.76,81.7592 400.094,81.4259 396.5,80.5C 395.534,82.396 395.201,84.396 395.5,86.5C 394.041,86.5674 392.708,86.2341 391.5,85.5 Z"/></g>
<g><path style="opacity:1" fill="#594638" d="M 348.5,85.5 C 346.577,85.205 344.91,84.3717 343.5,83C 345.762,82.3581 347.929,81.5248 350,80.5C 350.333,77.8333 350.667,75.1667 351,72.5C 352.961,74.9285 354.794,77.4285 356.5,80C 354.894,84.0122 354.228,88.1789 354.5,92.5C 344.737,95.245 343.404,93.4117 350.5,87C 349.584,86.7216 348.918,86.2216 348.5,85.5 Z"/></g>
<g><path style="opacity:1" fill="#594637" d="M 227.5,79.5 C 236.863,78.6082 240.363,82.6082 238,91.5C 230.691,97.7013 225.525,96.2013 222.5,87C 223.33,83.8094 224.997,81.3094 227.5,79.5 Z"/></g>
<g><path style="opacity:1" fill="#5f4533" d="M 220.5,70.5 C 219.042,73.4551 217.042,75.9551 214.5,78C 214.95,79.2853 215.617,80.452 216.5,81.5C 216.291,82.086 215.957,82.586 215.5,83C 217.139,84.5193 218.806,84.686 220.5,83.5C 219.539,94.0419 224.206,98.5419 234.5,97C 235.833,96.3333 237.167,95.6667 238.5,95C 239.429,92.6086 240.929,90.7753 243,89.5C 244.595,90.3557 245.428,91.6891 245.5,93.5C 244.518,92.8592 243.518,92.1925 242.5,91.5C 241.526,93.7427 241.192,96.076 241.5,98.5C 234.888,100.321 228.555,99.6542 222.5,96.5C 221.335,97.4911 220.168,98.4911 219,99.5C 216.98,98.9681 216.147,97.6348 216.5,95.5C 217.5,95.5 218.5,95.5 219.5,95.5C 219.688,93.8967 219.188,92.5634 218,91.5C 217.059,93.0614 215.892,94.3947 214.5,95.5C 214.729,91.4059 214.229,87.4059 213,83.5C 211.641,84.365 210.474,85.365 209.5,86.5C 210.833,82.5 212.167,78.5 213.5,74.5C 216.295,73.937 218.628,72.6037 220.5,70.5 Z"/></g>
<g><path style="opacity:1" fill="#58473a" d="M 251.5,79.5 C 253.857,79.3367 256.19,79.5034 258.5,80C 261.36,83.6814 262.193,87.8481 261,92.5C 255.559,96.9258 250.892,96.2591 247,90.5C 245.776,85.626 247.276,81.9593 251.5,79.5 Z"/></g>
<g><path style="opacity:1" fill="#65442c" d="M 348.5,85.5 C 350.12,83.0103 351.62,80.3437 353,77.5C 353.667,79.8333 353.667,82.1667 353,84.5C 351.644,85.3802 350.144,85.7135 348.5,85.5 Z"/></g>
<g><path style="opacity:1" fill="#65452f" d="M 228.5,80.5 C 234.114,80.6663 236.781,83.6663 236.5,89.5C 235.127,89.3433 233.793,89.51 232.5,90C 233.706,91.0177 233.373,91.5177 231.5,91.5C 229.143,90.9049 226.977,89.9049 225,88.5C 224.333,87.1667 224.333,85.8333 225,84.5C 227.071,83.8971 228.238,82.5638 228.5,80.5 Z"/></g>
<g><path style="opacity:1" fill="#5d463a" d="M 399.5,85.5 C 403.5,85.5 407.5,85.5 411.5,85.5C 411.5,87.8333 411.5,90.1667 411.5,92.5C 407.5,92.5 403.5,92.5 399.5,92.5C 399.5,90.1667 399.5,87.8333 399.5,85.5 Z"/></g>
<g><path style="opacity:1" fill="#63452f" d="M 252.5,80.5 C 259.113,81.1973 261.28,84.8639 259,91.5C 257.494,93.1742 255.661,94.1742 253.5,94.5C 253.719,93.325 253.386,92.325 252.5,91.5C 251.391,92.5896 250.391,92.5896 249.5,91.5C 248.438,88.8971 248.272,86.2305 249,83.5C 250.729,83.0257 251.895,82.0257 252.5,80.5 Z"/></g>
<g><path style="opacity:1" fill="#5f4633" d="M 367.5,75.5 C 367.461,76.5832 367.127,77.5832 366.5,78.5C 369.323,78.9646 371.823,77.9646 374,75.5C 376.054,77.0577 377.554,79.0577 378.5,81.5C 381.149,78.9608 383.816,78.9608 386.5,81.5C 389.134,78.722 390.801,79.0553 391.5,82.5C 385.5,82.5 379.5,82.5 373.5,82.5C 373.5,86.8333 373.5,91.1667 373.5,95.5C 379.5,95.5 385.5,95.5 391.5,95.5C 391.5,93.8333 391.5,92.1667 391.5,90.5C 393.167,90.5 394.833,90.5 396.5,90.5C 396.5,92.1667 396.5,93.8333 396.5,95.5C 402.167,95.5 407.833,95.5 413.5,95.5C 412.645,101.547 409.979,106.547 405.5,110.5C 405.955,107.538 407.121,104.871 409,102.5C 409.808,100.421 409.641,98.4213 408.5,96.5C 405.292,98.6474 402.792,101.314 401,104.5C 399.991,102.975 399.491,101.308 399.5,99.5C 393.195,99.0592 387.029,99.7259 381,101.5C 376.12,100.182 371.287,98.6821 366.5,97C 365.409,94.9361 365.242,92.7695 366,90.5C 366.98,92.0589 367.813,93.7256 368.5,95.5C 371.008,90.1818 371.841,84.8485 371,79.5C 369.667,80.8333 368.333,82.1667 367,83.5C 366.292,82.6195 365.458,81.9528 364.5,81.5C 364.461,78.911 365.461,76.911 367.5,75.5 Z"/></g>
<g><path style="opacity:1" fill="#644430" d="M 400.5,86.5 C 403.187,86.3359 405.854,86.5026 408.5,87C 409.337,88.0113 409.67,89.1779 409.5,90.5C 406.5,90.5 403.5,90.5 400.5,90.5C 400.5,89.1667 400.5,87.8333 400.5,86.5 Z"/></g>
<g><path style="opacity:1" fill="#59473b" d="M 376.5,85.5 C 380.5,85.5 384.5,85.5 388.5,85.5C 388.5,87.8333 388.5,90.1667 388.5,92.5C 384.5,92.5 380.5,92.5 376.5,92.5C 376.5,90.1667 376.5,87.8333 376.5,85.5 Z"/></g>
<g><path style="opacity:1" fill="#624632" d="M 378.5,86.5 C 381.187,86.3359 383.854,86.5026 386.5,87C 387.38,88.3561 387.714,89.8561 387.5,91.5C 384.5,91.5 381.5,91.5 378.5,91.5C 378.5,89.8333 378.5,88.1667 378.5,86.5 Z"/></g>
<g><path style="opacity:1" fill="#64452f" d="M 245.5,93.5 C 245.549,96.0991 246.549,98.2658 248.5,100C 248.167,100.333 247.833,100.667 247.5,101C 250.643,101.011 253.977,101.344 257.5,102C 253.159,105.859 249.159,110.025 245.5,114.5C 231.309,117.718 220.142,113.384 212,101.5C 210.545,97.5886 209.378,93.5886 208.5,89.5C 208.52,88.2739 208.853,87.2739 209.5,86.5C 210.474,85.365 211.641,84.365 213,83.5C 214.229,87.4059 214.729,91.4059 214.5,95.5C 215.892,94.3947 217.059,93.0614 218,91.5C 219.188,92.5634 219.688,93.8967 219.5,95.5C 218.5,95.5 217.5,95.5 216.5,95.5C 216.147,97.6348 216.98,98.9681 219,99.5C 220.168,98.4911 221.335,97.4911 222.5,96.5C 228.555,99.6542 234.888,100.321 241.5,98.5C 241.192,96.076 241.526,93.7427 242.5,91.5C 243.518,92.1925 244.518,92.8592 245.5,93.5 Z"/></g>
<g><path style="opacity:1" fill="#644530" d="M 405.5,110.5 C 405.5,111.167 405.167,111.5 404.5,111.5C 403.127,111.343 401.793,111.51 400.5,112C 397.5,113.667 394.5,115.333 391.5,117C 388.167,117.667 384.833,117.667 381.5,117C 377.127,115.228 372.794,113.395 368.5,111.5C 367.833,111.5 367.5,111.167 367.5,110.5C 366.329,106.835 364.495,103.502 362,100.5C 360.829,93.8426 361.663,87.5093 364.5,81.5C 365.458,81.9528 366.292,82.6195 367,83.5C 368.333,82.1667 369.667,80.8333 371,79.5C 371.841,84.8485 371.008,90.1818 368.5,95.5C 367.813,93.7256 366.98,92.0589 366,90.5C 365.242,92.7695 365.409,94.9361 366.5,97C 371.287,98.6821 376.12,100.182 381,101.5C 387.029,99.7259 393.195,99.0592 399.5,99.5C 399.491,101.308 399.991,102.975 401,104.5C 402.792,101.314 405.292,98.6474 408.5,96.5C 409.641,98.4213 409.808,100.421 409,102.5C 407.121,104.871 405.955,107.538 405.5,110.5 Z"/></g>
<g><path style="opacity:1" fill="#5a4638" d="M 367.5,73.5 C 367.5,74.1667 367.5,74.8333 367.5,75.5C 365.461,76.911 364.461,78.911 364.5,81.5C 361.663,87.5093 360.829,93.8426 362,100.5C 364.495,103.502 366.329,106.835 367.5,110.5C 359.557,102.658 357.391,93.3249 361,82.5C 362.643,79.0386 364.81,76.0386 367.5,73.5 Z"/></g>
<g><path style="opacity:1" fill="#59473a" d="M 201.5,91.5 C 203.067,94.9166 203.567,98.5832 203,102.5C 199.709,104.378 196.209,105.212 192.5,105C 191.483,103.951 191.316,102.784 192,101.5C 194.696,97.6393 197.863,94.306 201.5,91.5 Z"/></g>
<g><path style="opacity:1" fill="#5c4636" d="M 245.5,93.5 C 249.969,97.8733 254.969,98.8733 260.5,96.5C 259.323,105.371 254.323,111.371 245.5,114.5C 249.159,110.025 253.159,105.859 257.5,102C 253.977,101.344 250.643,101.011 247.5,101C 247.833,100.667 248.167,100.333 248.5,100C 246.549,98.2658 245.549,96.0991 245.5,93.5 Z"/></g>
<g><path style="opacity:1" fill="#614330" d="M 197.5,96.5 C 201.521,96.2437 202.854,97.9104 201.5,101.5C 199.5,102.833 197.5,102.833 195.5,101.5C 197.376,100.01 198.043,98.3431 197.5,96.5 Z"/></g>
<g><path style="opacity:1" fill="#4f4b48" d="M 183.5,108.5 C 184.239,108.369 184.906,108.536 185.5,109C 184.534,110.678 183.201,111.345 181.5,111C 182.381,110.292 183.047,109.458 183.5,108.5 Z"/></g>
<g><path style="opacity:1" fill="#594536" d="M 213.5,74.5 C 212.167,78.5 210.833,82.5 209.5,86.5C 208.853,87.2739 208.52,88.2739 208.5,89.5C 209.378,93.5886 210.545,97.5886 212,101.5C 220.142,113.384 231.309,117.718 245.5,114.5C 228.998,120.382 216.831,115.382 209,99.5C 206.059,90.2553 207.559,81.9219 213.5,74.5 Z"/></g>
<g><path style="opacity:1" fill="#574539" d="M 368.5,111.5 C 372.794,113.395 377.127,115.228 381.5,117C 384.833,117.667 388.167,117.667 391.5,117C 394.5,115.333 397.5,113.667 400.5,112C 401.793,111.51 403.127,111.343 404.5,111.5C 396.341,118.474 387.008,120.307 376.5,117C 373.244,115.884 370.578,114.051 368.5,111.5 Z"/></g>
<g><path style="opacity:1" fill="#5a4638" d="M 415.5,197.5 C 416.396,193.742 417.062,189.909 417.5,186C 417.418,182.765 416.918,179.598 416,176.5C 403.394,163.894 390.894,151.394 378.5,139C 373.643,137.815 371.31,134.648 371.5,129.5C 374.081,126.903 374.081,124.403 371.5,122C 368.067,121.43 365.067,120.097 362.5,118C 360.774,112.048 357.44,111.048 352.5,115C 348.446,119.054 344.446,123.054 340.5,127C 339.552,127.483 338.552,127.649 337.5,127.5C 343.855,120.98 350.688,114.98 358,109.5C 361.453,111.95 364.62,114.783 367.5,118C 370.833,119.667 374.167,121.333 377.5,123C 375.298,125.882 374.131,129.049 374,132.5C 388.333,146.833 402.667,161.167 417,175.5C 419.285,180.972 419.952,186.638 419,192.5C 417.97,194.346 416.804,196.013 415.5,197.5 Z"/></g>
<g><path style="opacity:1" fill="#56453b" d="M 260.5,109.5 C 261.818,114.214 260.485,118.214 256.5,121.5C 255.376,120.086 254.376,118.586 253.5,117C 256.039,114.63 258.372,112.13 260.5,109.5 Z"/></g>
<g><path style="opacity:1" fill="#63452f" d="M 210.5,112.5 C 210.33,113.822 210.663,114.989 211.5,116C 215.132,117.484 218.466,119.484 221.5,122C 223.473,122.495 225.473,122.662 227.5,122.5C 226.786,124.874 225.452,126.874 223.5,128.5C 223.453,130.038 224.12,131.038 225.5,131.5C 226.511,133.372 227.345,135.372 228,137.5C 230.783,138.641 232.95,140.475 234.5,143C 235.448,143.483 236.448,143.649 237.5,143.5C 243.833,149.167 249.833,155.167 255.5,161.5C 255.703,163.044 256.37,164.378 257.5,165.5C 261.708,168.874 265.375,172.707 268.5,177C 268.011,178.138 267.678,179.305 267.5,180.5C 265.11,182.597 263.444,185.264 262.5,188.5C 260.993,189.739 259.826,189.405 259,187.5C 259.397,190.032 260.23,192.532 261.5,195C 261.238,199.565 258.738,201.732 254,201.5C 251.679,201.091 249.513,200.257 247.5,199C 243.457,195.953 240.123,192.786 237.5,189.5C 238.668,188.094 238.335,186.928 236.5,186C 232.023,183.677 227.69,181.177 223.5,178.5C 223.009,175.99 222.009,173.656 220.5,171.5C 217.629,169.456 214.962,167.123 212.5,164.5C 210.925,163.544 209.258,162.877 207.5,162.5C 205.186,160.523 202.853,158.523 200.5,156.5C 198.481,158.19 196.481,159.856 194.5,161.5C 186.129,166.82 179.295,173.154 174,180.5C 173.667,179.833 173.333,179.167 173,178.5C 169.153,180.819 167.32,184.153 167.5,188.5C 170.101,189.801 172.768,191.134 175.5,192.5C 179.436,195.237 183.603,197.903 188,200.5C 194.074,201.385 199.574,203.552 204.5,207C 206.473,207.495 208.473,207.662 210.5,207.5C 211.609,207.557 212.609,207.89 213.5,208.5C 213.277,211.114 214.444,212.781 217,213.5C 218.377,217.294 219.543,221.128 220.5,225C 218.477,229.241 217.144,233.741 216.5,238.5C 216.5,238.833 216.5,239.167 216.5,239.5C 215.504,239.414 214.671,239.748 214,240.5C 211.482,250.252 207.482,259.252 202,267.5C 201.548,270.877 200.882,274.211 200,277.5C 196.779,282.981 194.112,288.647 192,294.5C 191.505,296.473 191.338,298.473 191.5,300.5C 191.573,302.027 190.906,303.027 189.5,303.5C 186.654,303.59 184.321,304.756 182.5,307C 175.048,308.954 168.881,307.121 164,301.5C 163.501,297.179 163.334,292.846 163.5,288.5C 164.458,288.047 165.292,287.381 166,286.5C 168.192,278.459 171.192,270.793 175,263.5C 175.495,261.527 175.662,259.527 175.5,257.5C 175.5,256.833 175.5,256.167 175.5,255.5C 176.5,255.5 177.5,255.5 178.5,255.5C 180.921,248.576 182.921,241.576 184.5,234.5C 176.167,230.5 167.833,226.5 159.5,222.5C 157.238,220.107 154.572,219.94 151.5,222C 152.815,264.785 152.815,307.618 151.5,350.5C 150.5,350.5 149.5,350.5 148.5,350.5C 148.181,346.7 147.181,346.534 145.5,350C 146.38,351.356 146.714,352.856 146.5,354.5C 144.801,354.38 143.135,354.046 141.5,353.5C 140.833,353.833 140.167,354.167 139.5,354.5C 140.5,355.167 141.5,355.833 142.5,356.5C 138.009,358.217 133.343,358.883 128.5,358.5C 127.263,355.755 125.43,353.422 123,351.5C 122.667,349.833 122.333,348.167 122,346.5C 121.333,296.5 121.333,246.5 122,196.5C 122.834,185.633 128.334,178.466 138.5,175C 141.523,172.823 143.523,169.989 144.5,166.5C 144.833,166.5 145.167,166.5 145.5,166.5C 150.15,164.371 154.15,161.205 157.5,157C 159.556,156.689 161.556,156.189 163.5,155.5C 165.417,152.417 168.084,150.25 171.5,149C 172.37,146.087 173.87,143.587 176,141.5C 180.897,138.611 185.23,134.945 189,130.5C 190.094,128.922 190.928,127.255 191.5,125.5C 191.833,125.5 192.167,125.5 192.5,125.5C 199.061,121.938 205.061,117.605 210.5,112.5 Z M 160.5,230.5 C 160.5,238.833 160.5,247.167 160.5,255.5C 163.777,255.784 166.943,255.451 170,254.5C 172.167,248.833 174.333,243.167 176.5,237.5C 171.496,234.388 166.162,232.055 160.5,230.5 Z M 160.5,268.5 C 160.335,271.518 160.502,274.518 161,277.5C 162.171,274.65 163.338,271.816 164.5,269C 163.207,268.51 161.873,268.343 160.5,268.5 Z"/></g>
<g><path style="opacity:1" fill="#58463a" d="M 210.5,112.5 C 205.061,117.605 199.061,121.938 192.5,125.5C 197.041,120.222 202.041,115.389 207.5,111C 208.998,110.415 209.998,110.915 210.5,112.5 Z"/></g>
<g><path style="opacity:1" fill="#594638" d="M 210.5,112.5 C 215.915,117.374 222.249,120.374 229.5,121.5C 228.724,125.052 227.391,128.386 225.5,131.5C 224.12,131.038 223.453,130.038 223.5,128.5C 225.452,126.874 226.786,124.874 227.5,122.5C 225.473,122.662 223.473,122.495 221.5,122C 218.466,119.484 215.132,117.484 211.5,116C 210.663,114.989 210.33,113.822 210.5,112.5 Z"/></g>
<g><path style="opacity:1" fill="#63452f" d="M 415.5,197.5 C 415.167,197.5 414.833,197.5 414.5,197.5C 411.87,198.428 409.204,199.428 406.5,200.5C 403.432,200.16 400.099,199.66 396.5,199C 392.317,196.3 388.317,193.467 384.5,190.5C 384.5,189.5 384.5,188.5 384.5,187.5C 383.167,187.5 381.833,187.5 380.5,187.5C 379.909,184.386 378.242,181.886 375.5,180C 373.25,179.389 371.583,178.056 370.5,176C 369.552,175.517 368.552,175.351 367.5,175.5C 361.833,170.5 356.5,165.167 351.5,159.5C 351.778,157.654 351.111,156.32 349.5,155.5C 347.885,156.154 346.218,156.654 344.5,157C 342.153,159.883 339.486,162.383 336.5,164.5C 335.754,165.736 335.421,167.07 335.5,168.5C 331.28,168.427 328.946,170.427 328.5,174.5C 327.127,174.343 325.793,174.51 324.5,175C 322.667,178.167 320.167,180.667 317,182.5C 314.921,185.483 314.087,188.817 314.5,192.5C 319.131,193.239 323.631,194.572 328,196.5C 331.602,200.38 336.102,202.213 341.5,202C 346.222,204.739 351.222,206.572 356.5,207.5C 357.791,207.263 358.791,207.596 359.5,208.5C 360.072,210.255 360.906,211.922 362,213.5C 367.16,215.896 368.826,219.896 367,225.5C 364.943,229.946 363.777,234.613 363.5,239.5C 361.034,244.172 358.367,248.839 355.5,253.5C 354.108,252.395 352.941,251.061 352,249.5C 351.598,250.872 351.098,252.205 350.5,253.5C 352.318,254.824 353.318,256.657 353.5,259C 352.035,262.281 351.368,265.781 351.5,269.5C 349.733,275.485 347.4,281.152 344.5,286.5C 340.524,292.132 337.191,298.132 334.5,304.5C 321.935,311.871 313.935,308.538 310.5,294.5C 310.696,292.714 311.529,291.381 313,290.5C 312.907,287.044 313.907,284.044 316,281.5C 317.118,276.394 318.285,271.394 319.5,266.5C 320.37,261.777 322.036,257.444 324.5,253.5C 327.095,249.311 329.428,244.978 331.5,240.5C 332.484,237.572 332.817,234.572 332.5,231.5C 330.159,231.008 328.159,229.841 326.5,228C 322.781,227.612 319.114,226.945 315.5,226C 310.67,223.835 306.337,221.002 302.5,217.5C 299.833,218.167 298.167,219.833 297.5,222.5C 299.485,260.014 300.152,297.681 299.5,335.5C 301.381,344.539 298.714,351.705 291.5,357C 287.981,357.377 284.481,357.877 281,358.5C 278.269,357.383 275.435,356.717 272.5,356.5C 271.085,352.916 269.918,349.249 269,345.5C 268.333,296.167 268.333,246.833 269,197.5C 270.31,193.93 271.143,190.263 271.5,186.5C 272.362,181.302 275.362,177.969 280.5,176.5C 281.922,176.291 283.255,175.791 284.5,175C 288.668,171.993 292.668,168.827 296.5,165.5C 298.278,163.736 299.611,161.736 300.5,159.5C 301.795,158.512 303.128,157.512 304.5,156.5C 308.418,157.624 311.084,156.124 312.5,152C 317.286,151.04 320.119,148.207 321,143.5C 323.975,142.551 325.809,140.551 326.5,137.5C 329.543,133.456 333.209,130.123 337.5,127.5C 338.552,127.649 339.552,127.483 340.5,127C 344.446,123.054 348.446,119.054 352.5,115C 357.44,111.048 360.774,112.048 362.5,118C 365.067,120.097 368.067,121.43 371.5,122C 374.081,124.403 374.081,126.903 371.5,129.5C 371.31,134.648 373.643,137.815 378.5,139C 390.894,151.394 403.394,163.894 416,176.5C 416.918,179.598 417.418,182.765 417.5,186C 417.062,189.909 416.396,193.742 415.5,197.5 Z M 307.5,230.5 C 307.333,246.503 307.5,262.503 308,278.5C 313.559,265.156 318.726,251.656 323.5,238C 318.596,234.716 313.262,232.216 307.5,230.5 Z"/></g>
<g><path style="opacity:1" fill="#5a4638" d="M 225.5,131.5 C 229.833,135.167 233.833,139.167 237.5,143.5C 236.448,143.649 235.448,143.483 234.5,143C 232.95,140.475 230.783,138.641 228,137.5C 227.345,135.372 226.511,133.372 225.5,131.5 Z"/></g>
<g><path style="opacity:1" fill="#5d4636" d="M 191.5,125.5 C 190.928,127.255 190.094,128.922 189,130.5C 185.23,134.945 180.897,138.611 176,141.5C 173.87,143.587 172.37,146.087 171.5,149C 168.084,150.25 165.417,152.417 163.5,155.5C 161.556,156.189 159.556,156.689 157.5,157C 154.15,161.205 150.15,164.371 145.5,166.5C 160.808,152.862 176.141,139.195 191.5,125.5 Z"/></g>
<g><path style="opacity:1" fill="#5d4636" d="M 326.5,137.5 C 325.809,140.551 323.975,142.551 321,143.5C 320.119,148.207 317.286,151.04 312.5,152C 311.084,156.124 308.418,157.624 304.5,156.5C 311.238,149.426 318.571,143.092 326.5,137.5 Z"/></g>
<g><path style="opacity:1" fill="#594638" d="M 351.5,159.5 C 349.856,158.634 348.189,158.134 346.5,158C 342.964,161.704 339.298,165.204 335.5,168.5C 335.421,167.07 335.754,165.736 336.5,164.5C 339.486,162.383 342.153,159.883 344.5,157C 346.218,156.654 347.885,156.154 349.5,155.5C 351.111,156.32 351.778,157.654 351.5,159.5 Z"/></g>
<g><path style="opacity:1" fill="#5c4637" d="M 207.5,162.5 C 209.258,162.877 210.925,163.544 212.5,164.5C 214.962,167.123 217.629,169.456 220.5,171.5C 222.009,173.656 223.009,175.99 223.5,178.5C 217.833,173.5 212.5,168.167 207.5,162.5 Z"/></g>
<g><path style="opacity:1" fill="#59473a" d="M 255.5,161.5 C 260.996,166.163 265.996,171.33 270.5,177C 269.837,178.518 268.837,179.685 267.5,180.5C 267.678,179.305 268.011,178.138 268.5,177C 265.375,172.707 261.708,168.874 257.5,165.5C 256.37,164.378 255.703,163.044 255.5,161.5 Z"/></g>
<g><path style="opacity:1" fill="#5d483b" d="M 194.5,161.5 C 185.833,170.833 176.833,179.833 167.5,188.5C 167.32,184.153 169.153,180.819 173,178.5C 173.333,179.167 173.667,179.833 174,180.5C 179.295,173.154 186.129,166.82 194.5,161.5 Z"/></g>
<g><path style="opacity:1" fill="#584639" d="M 300.5,159.5 C 299.611,161.736 298.278,163.736 296.5,165.5C 292.668,168.827 288.668,171.993 284.5,175C 283.255,175.791 281.922,176.291 280.5,176.5C 287.142,170.863 293.808,165.196 300.5,159.5 Z"/></g>
<g><path style="opacity:1" fill="#5a4637" d="M 367.5,175.5 C 368.552,175.351 369.552,175.517 370.5,176C 371.583,178.056 373.25,179.389 375.5,180C 378.242,181.886 379.909,184.386 380.5,187.5C 381.833,187.5 383.167,187.5 384.5,187.5C 384.5,188.5 384.5,189.5 384.5,190.5C 388.317,193.467 392.317,196.3 396.5,199C 400.099,199.66 403.432,200.16 406.5,200.5C 409.204,199.428 411.87,198.428 414.5,197.5C 412.59,199.562 410.257,201.062 407.5,202C 401.405,203.266 395.738,202.266 390.5,199C 382.631,191.298 374.964,183.465 367.5,175.5 Z"/></g>
<g><path style="opacity:1" fill="#5a4537" d="M 223.5,178.5 C 227.69,181.177 232.023,183.677 236.5,186C 238.335,186.928 238.668,188.094 237.5,189.5C 240.123,192.786 243.457,195.953 247.5,199C 249.513,200.257 251.679,201.091 254,201.5C 258.738,201.732 261.238,199.565 261.5,195C 260.23,192.532 259.397,190.032 259,187.5C 259.826,189.405 260.993,189.739 262.5,188.5C 263.444,185.264 265.11,182.597 267.5,180.5C 264.761,186.889 262.927,193.556 262,200.5C 255.04,203.567 248.54,202.734 242.5,198C 235.991,191.658 229.658,185.158 223.5,178.5 Z"/></g>
<g><path style="opacity:1" fill="#594638" d="M 175.5,192.5 C 187.351,197.264 199.017,202.264 210.5,207.5C 208.473,207.662 206.473,207.495 204.5,207C 199.574,203.552 194.074,201.385 188,200.5C 183.603,197.903 179.436,195.237 175.5,192.5 Z"/></g>
<g><path style="opacity:1" fill="#594638" d="M 335.5,168.5 C 329.036,175.465 322.369,182.298 315.5,189C 329.226,195.2 342.893,201.366 356.5,207.5C 351.222,206.572 346.222,204.739 341.5,202C 336.102,202.213 331.602,200.38 328,196.5C 323.631,194.572 319.131,193.239 314.5,192.5C 314.087,188.817 314.921,185.483 317,182.5C 320.167,180.667 322.667,178.167 324.5,175C 325.793,174.51 327.127,174.343 328.5,174.5C 328.946,170.427 331.28,168.427 335.5,168.5 Z"/></g>
<g><path style="opacity:1" fill="#574537" d="M 144.5,166.5 C 143.523,169.989 141.523,172.823 138.5,175C 128.334,178.466 122.834,185.633 122,196.5C 121.333,246.5 121.333,296.5 122,346.5C 122.333,348.167 122.667,349.833 123,351.5C 125.43,353.422 127.263,355.755 128.5,358.5C 123.096,355.556 120.263,350.89 120,344.5C 119.333,296.833 119.333,249.167 120,201.5C 120.492,194.368 122.492,187.702 126,181.5C 132.331,176.666 138.497,171.666 144.5,166.5 Z"/></g>
<g><path style="opacity:1" fill="#534034" d="M 271.5,186.5 C 271.143,190.263 270.31,193.93 269,197.5C 268.333,246.833 268.333,296.167 269,345.5C 269.918,349.249 271.085,352.916 272.5,356.5C 269.024,353.014 267.191,348.681 267,343.5C 266.333,296.833 266.333,250.167 267,203.5C 267.434,197.422 268.934,191.755 271.5,186.5 Z"/></g>
<g><path style="opacity:1" fill="#584639" d="M 359.5,208.5 C 367.438,212.376 370.605,218.71 369,227.5C 367.391,231.71 365.558,235.71 363.5,239.5C 363.777,234.613 364.943,229.946 367,225.5C 368.826,219.896 367.16,215.896 362,213.5C 360.906,211.922 360.072,210.255 359.5,208.5 Z"/></g>
<g><path style="opacity:1" fill="#5e4636" d="M 324.5,253.5 C 326.026,248.09 327.859,242.756 330,237.5C 330.781,236.056 330.614,234.723 329.5,233.5C 320.5,229.5 311.5,225.5 302.5,221.5C 301.702,221.957 301.369,222.624 301.5,223.5C 300.833,260.833 300.167,298.167 299.5,335.5C 300.152,297.681 299.485,260.014 297.5,222.5C 298.167,219.833 299.833,218.167 302.5,217.5C 306.337,221.002 310.67,223.835 315.5,226C 319.114,226.945 322.781,227.612 326.5,228C 328.159,229.841 330.159,231.008 332.5,231.5C 332.817,234.572 332.484,237.572 331.5,240.5C 329.428,244.978 327.095,249.311 324.5,253.5 Z"/></g>
<g><path style="opacity:1" fill="#574539" d="M 213.5,208.5 C 219.153,211.659 222.153,216.493 222.5,223C 221.434,228.615 219.434,233.782 216.5,238.5C 217.144,233.741 218.477,229.241 220.5,225C 219.543,221.128 218.377,217.294 217,213.5C 214.444,212.781 213.277,211.114 213.5,208.5 Z"/></g>
<g><path style="opacity:1" fill="#584538" d="M 184.5,234.5 C 182.921,241.576 180.921,248.576 178.5,255.5C 177.5,255.5 176.5,255.5 175.5,255.5C 178.323,248.346 181.323,241.346 184.5,234.5 Z"/></g>
<g><path style="opacity:1" fill="#5d4534" d="M 363.5,239.5 C 360.07,249.803 356.07,259.803 351.5,269.5C 351.368,265.781 352.035,262.281 353.5,259C 353.318,256.657 352.318,254.824 350.5,253.5C 351.098,252.205 351.598,250.872 352,249.5C 352.941,251.061 354.108,252.395 355.5,253.5C 358.367,248.839 361.034,244.172 363.5,239.5 Z"/></g>
<g><path style="opacity:1" fill="#5b4637" d="M 216.5,239.5 C 208.733,260.151 200.4,280.484 191.5,300.5C 191.338,298.473 191.505,296.473 192,294.5C 194.112,288.647 196.779,282.981 200,277.5C 200.882,274.211 201.548,270.877 202,267.5C 207.482,259.252 211.482,250.252 214,240.5C 214.671,239.748 215.504,239.414 216.5,239.5 Z"/></g>
<g><path style="opacity:1" fill="#584639" d="M 175.5,257.5 C 175.662,259.527 175.495,261.527 175,263.5C 171.192,270.793 168.192,278.459 166,286.5C 165.292,287.381 164.458,288.047 163.5,288.5C 167.129,277.934 171.129,267.601 175.5,257.5 Z"/></g>
<g><path style="opacity:1" fill="#584538" d="M 319.5,266.5 C 318.285,271.394 317.118,276.394 316,281.5C 313.907,284.044 312.907,287.044 313,290.5C 311.529,291.381 310.696,292.714 310.5,294.5C 313.935,308.538 321.935,311.871 334.5,304.5C 337.191,298.132 340.524,292.132 344.5,286.5C 342.908,292.356 340.742,298.023 338,303.5C 330.145,310.457 321.645,311.29 312.5,306C 309.989,303.32 308.323,300.153 307.5,296.5C 310.997,286.191 314.997,276.191 319.5,266.5 Z"/></g>
<g><path style="opacity:1" fill="#57463a" d="M 163.5,288.5 C 163.334,292.846 163.501,297.179 164,301.5C 168.881,307.121 175.048,308.954 182.5,307C 184.321,304.756 186.654,303.59 189.5,303.5C 185.087,308.804 179.42,310.637 172.5,309C 161.87,305.258 158.87,298.424 163.5,288.5 Z"/></g>
<g><path style="opacity:1" fill="#574437" d="M 159.5,222.5 C 157.883,221.962 156.216,221.629 154.5,221.5C 154.828,263.845 154.328,306.178 153,348.5C 150.399,356.759 144.732,360.759 136,360.5C 133.179,360.592 130.679,359.926 128.5,358.5C 133.343,358.883 138.009,358.217 142.5,356.5C 141.5,355.833 140.5,355.167 139.5,354.5C 140.167,354.167 140.833,353.833 141.5,353.5C 143.135,354.046 144.801,354.38 146.5,354.5C 146.714,352.856 146.38,351.356 145.5,350C 147.181,346.534 148.181,346.7 148.5,350.5C 149.5,350.5 150.5,350.5 151.5,350.5C 152.815,307.618 152.815,264.785 151.5,222C 154.572,219.94 157.238,220.107 159.5,222.5 Z"/></g>
<g><path style="opacity:1" fill="#584639" d="M 301.5,223.5 C 301.667,264.168 301.5,304.835 301,345.5C 297.909,357.803 290.076,362.637 277.5,360C 275.119,359.777 273.453,358.61 272.5,356.5C 275.435,356.717 278.269,357.383 281,358.5C 284.481,357.877 287.981,357.377 291.5,357C 298.714,351.705 301.381,344.539 299.5,335.5C 300.167,298.167 300.833,260.833 301.5,223.5 Z"/></g>
</svg>
